<?xml version="1.0"?>
<svg xmlns="http://www.w3.org/2000/svg" xmlns:xlink="http://www.w3.org/1999/xlink" xmlns:svgjs="http://svgjs.com/svgjs" version="1.1" width="512" height="512" x="0" y="0" viewBox="0 0 469.333 469.333" style="enable-background:new 0 0 512 512" xml:space="preserve" class=""><g>
<g xmlns="http://www.w3.org/2000/svg">
	<g>
		<g>
			<path d="M323.125,282.919l6.24,6.244c6.031,6.056,14.073,9.392,22.635,9.392s16.604-3.336,22.625-9.381l85.323-85.379     c6.052-6.035,9.385-14.082,9.385-22.65s-3.333-16.615-9.375-22.64l-6.25-6.254c-4.167-4.169-10.917-4.169-15.083,0     l-115.5,115.576C318.958,271.995,318.958,278.749,323.125,282.919z" fill="#0087e9" data-original="#000000" style="" class=""/>
			<path d="M186.292,145.995c2.083,2.085,4.813,3.127,7.542,3.127c2.729,0,5.458-1.042,7.542-3.127l115.5-115.576     c4.167-4.169,4.167-10.924,0-15.093l-6.24-6.244c-12.063-12.112-33.219-12.102-45.26-0.01L180.052,94.45     c-6.052,6.035-9.385,14.082-9.385,22.65c0,8.568,3.333,16.615,9.375,22.64L186.292,145.995z" fill="#0087e9" data-original="#000000" style="" class=""/>
			<path d="M292.958,252.732c2.083,2.085,4.813,3.127,7.542,3.127c2.729,0,5.458-1.042,7.542-3.127l115.5-115.576     c4.167-4.169,4.167-10.924,0-15.093l-76.5-76.551c-4.167-4.169-10.917-4.169-15.083,0l-115.5,115.576     c-4.167,4.169-4.167,10.924,0,15.093l15.337,15.347C149.195,263.15,43.03,365.902,12.5,396.452C4.437,404.52,0,415.235,0,426.638     c0,23.547,19.135,42.695,42.667,42.695c11.396,0,22.104-4.44,30.167-12.508c36.751-36.776,136.935-140.593,205.043-219.185     L292.958,252.732z" fill="#0087e9" data-original="#000000" style="" class=""/>
			<path d="M405.333,362.667H256c-35.292,0-64,28.398-64,63.69c0,23.531,19.135,42.667,42.667,42.667h192     c23.531,0,42.667-19.135,42.667-42.667C469.333,391.065,440.625,362.667,405.333,362.667z" fill="#0087e9" data-original="#000000" style="" class=""/>
		</g>
	</g>
</g>
<g xmlns="http://www.w3.org/2000/svg">
</g>
<g xmlns="http://www.w3.org/2000/svg">
</g>
<g xmlns="http://www.w3.org/2000/svg">
</g>
<g xmlns="http://www.w3.org/2000/svg">
</g>
<g xmlns="http://www.w3.org/2000/svg">
</g>
<g xmlns="http://www.w3.org/2000/svg">
</g>
<g xmlns="http://www.w3.org/2000/svg">
</g>
<g xmlns="http://www.w3.org/2000/svg">
</g>
<g xmlns="http://www.w3.org/2000/svg">
</g>
<g xmlns="http://www.w3.org/2000/svg">
</g>
<g xmlns="http://www.w3.org/2000/svg">
</g>
<g xmlns="http://www.w3.org/2000/svg">
</g>
<g xmlns="http://www.w3.org/2000/svg">
</g>
<g xmlns="http://www.w3.org/2000/svg">
</g>
<g xmlns="http://www.w3.org/2000/svg">
</g>
</g></svg>
