<svg width="295" height="135" viewBox="0 0 295 135" fill="none" xmlns="http://www.w3.org/2000/svg">
<g filter="url(#filter0_di)">
<path d="M60.7844 85.76C54.4644 91.04 45.5044 93.68 33.9044 93.68C22.3044 93.68 14.2644 91 9.78438 85.64C6.58438 81.96 4.98438 76.88 4.98438 70.4C4.98438 67.52 5.30438 64.36 5.94438 60.92L15.6644 5.6H37.2644L27.5444 60.44C27.2244 62.44 27.0644 64.52 27.0644 66.68C27.0644 72.28 30.4244 75.08 37.1444 75.08C41.1444 75.08 44.3444 74.04 46.7444 71.96C49.1444 69.88 50.8244 66.04 51.7844 60.44L61.5044 5.6H83.1044L73.3844 60.92C71.3844 72.12 67.1844 80.4 60.7844 85.76Z" fill="#0063AB"/>
<path d="M125.753 32.6C133.673 32.6 139.233 34.8 142.433 39.2C144.833 42.32 146.033 46.12 146.033 50.6C146.033 52.44 145.833 54.36 145.433 56.36L143.033 69.8C141.673 77.48 138.113 83.4 132.353 87.56C126.673 91.64 119.473 93.68 110.753 93.68C102.113 93.68 95.4731 91.96 90.8331 88.52C87.1531 85.8 85.3131 82 85.3131 77.12C85.3131 75.84 85.4331 74.52 85.6731 73.16L98.3931 0.919992H118.793L112.673 35.84C116.033 33.68 120.393 32.6 125.753 32.6ZM124.673 58.16C124.753 57.52 124.793 56.64 124.793 55.52C124.793 54.32 124.273 53.08 123.233 51.8C122.273 50.44 120.113 49.76 116.753 49.76C113.473 49.76 111.113 50.76 109.673 52.76L106.193 72.8C107.153 75.2 109.153 76.4 112.193 76.4C118.353 76.4 121.993 73.32 123.113 67.16L124.673 58.16Z" fill="#0079D1"/>
<path d="M209.311 73.52C209.311 75.6 210.351 76.64 212.431 76.64C214.591 76.64 216.391 76.24 217.831 75.44L217.231 89C213.391 92.12 209.071 93.68 204.271 93.68C195.471 93.68 190.591 90.48 189.631 84.08C185.631 90.48 179.751 93.68 171.991 93.68C158.871 93.68 152.311 88.04 152.311 76.76C152.311 74.84 152.511 72.72 152.911 70.4L155.431 56.36C156.711 49.16 159.631 43.44 164.191 39.2C168.831 34.88 174.831 32.72 182.191 32.72C189.631 32.72 194.671 34.44 197.311 37.88L197.911 34.28H216.151L209.431 72.08C209.351 72.56 209.311 73.04 209.311 73.52ZM173.791 67.76C173.631 68.48 173.551 69.48 173.551 70.76C173.551 72.04 174.151 73.32 175.351 74.6C176.551 75.8 178.551 76.4 181.351 76.4C184.231 76.4 186.711 75.28 188.791 73.04L192.391 52.88C191.511 50.88 189.431 49.88 186.151 49.88C179.991 49.88 176.391 52.84 175.351 58.76L173.791 67.76Z" fill="#0087E9"/>
<path d="M248.138 66.2C247.898 67.64 247.778 69.08 247.778 70.52C247.778 74.36 249.938 76.28 254.258 76.28C257.778 76.28 260.698 75.04 263.018 72.56L269.738 34.28H290.138L279.578 93.92C277.818 104.08 273.778 112.12 267.458 118.04C261.218 123.96 254.058 126.92 245.978 126.92C237.898 126.92 232.058 125.44 228.458 122.48C224.938 119.52 223.178 115.64 223.178 110.84C223.178 104.04 227.378 98 235.778 92.72C231.218 91.6 228.338 89.32 227.138 85.88C226.418 83.96 226.058 81.8 226.058 79.4C226.058 77 226.258 74.56 226.658 72.08L233.378 34.28H253.778L248.138 66.2ZM248.738 109.76C253.938 109.76 257.338 105.04 258.938 95.6L260.138 88.64C249.018 93.84 243.458 99.08 243.458 104.36C243.458 105.96 243.898 107.24 244.778 108.2C245.738 109.24 247.058 109.76 248.738 109.76Z" fill="#2BA6FF"/>
</g>
<defs>
<filter id="filter0_di" x="0.984375" y="0.919983" width="293.154" height="134" filterUnits="userSpaceOnUse" color-interpolation-filters="sRGB">
<feFlood flood-opacity="0" result="BackgroundImageFix"/>
<feColorMatrix in="SourceAlpha" type="matrix" values="0 0 0 0 0 0 0 0 0 0 0 0 0 0 0 0 0 0 127 0"/>
<feOffset dy="4"/>
<feGaussianBlur stdDeviation="2"/>
<feColorMatrix type="matrix" values="0 0 0 0 0 0 0 0 0 0 0 0 0 0 0 0 0 0 0.25 0"/>
<feBlend mode="normal" in2="BackgroundImageFix" result="effect1_dropShadow"/>
<feBlend mode="normal" in="SourceGraphic" in2="effect1_dropShadow" result="shape"/>
<feColorMatrix in="SourceAlpha" type="matrix" values="0 0 0 0 0 0 0 0 0 0 0 0 0 0 0 0 0 0 127 0" result="hardAlpha"/>
<feOffset dy="4"/>
<feGaussianBlur stdDeviation="2"/>
<feComposite in2="hardAlpha" operator="arithmetic" k2="-1" k3="1"/>
<feColorMatrix type="matrix" values="0 0 0 0 0 0 0 0 0 0 0 0 0 0 0 0 0 0 0.25 0"/>
<feBlend mode="normal" in2="shape" result="effect2_innerShadow"/>
</filter>
</defs>
</svg>
